<?xml version="1.0" standalone="no"?>
<!DOCTYPE svg PUBLIC "-//W3C//DTD SVG 20010904//EN"
 "http://www.w3.org/TR/2001/REC-SVG-20010904/DTD/svg10.dtd">
<svg version="1.0" xmlns="http://www.w3.org/2000/svg"
 width="600.000000pt" height="600.000000pt" viewBox="0 0 600.000000 600.000000"
 preserveAspectRatio="xMidYMid meet">

<g transform="translate(0.000000,600.000000) scale(0.100000,-0.100000)"
fill="#000000" stroke="none">
<path d="M2025 5689 c-342 -14 -519 -40 -715 -105 -434 -145 -749 -460 -894
-894 -98 -293 -116 -560 -116 -1690 0 -680 10 -1084 31 -1285 42 -403 180
-717 424 -960 162 -162 344 -272 570 -344 295 -95 536 -111 1675 -111 953 0
1252 12 1490 61 609 124 1025 540 1149 1149 49 238 61 537 61 1490 0 1139 -16
1380 -111 1675 -72 226 -182 408 -344 570 -161 161 -329 264 -557 340 -201 67
-360 89 -748 105 -280 11 -1629 11 -1915 -1z m1990 -489 c253 -13 383 -32 514
-76 133 -44 224 -92 308 -163 214 -180 315 -399 355 -771 19 -179 19 -2199 0
-2380 -24 -234 -75 -407 -164 -558 -43 -73 -207 -237 -280 -280 -151 -89 -324
-140 -558 -164 -181 -19 -2201 -19 -2380 0 -372 40 -591 141 -771 355 -71 84
-119 175 -163 308 -74 222 -86 432 -86 1529 0 822 9 1136 35 1310 75 500 366
790 869 866 55 8 172 19 260 23 238 12 1829 12 2061 1z"/>
<path d="M4305 4732 c-111 -53 -176 -149 -183 -272 -7 -131 54 -242 169 -305
42 -22 70 -30 130 -33 110 -6 166 15 245 93 69 69 97 133 97 225 0 92 -28 156
-97 226 -72 72 -126 94 -230 94 -57 0 -83 -6 -131 -28z"/>
<path d="M2872 4379 c-243 -22 -493 -117 -692 -262 -79 -58 -223 -201 -284
-282 -417 -553 -364 -1325 125 -1813 202 -203 461 -338 739 -388 127 -23 353
-23 480 0 573 103 1023 553 1126 1126 23 127 23 353 0 480 -90 503 -455 921
-941 1079 -165 53 -378 76 -553 60z m350 -508 c311 -81 548 -312 645 -628 24
-79 27 -103 27 -243 0 -140 -3 -164 -27 -243 -95 -310 -314 -529 -624 -624
-79 -24 -103 -27 -243 -27 -140 0 -164 3 -243 27 -321 98 -553 341 -634 664
-26 103 -23 323 6 428 91 336 370 596 708 660 103 19 282 13 385 -14z"/>
</g>
</svg>
