<?xml version="1.0" standalone="no"?>
<!DOCTYPE svg PUBLIC "-//W3C//DTD SVG 20010904//EN"
 "http://www.w3.org/TR/2001/REC-SVG-20010904/DTD/svg10.dtd">
<svg version="1.0" xmlns="http://www.w3.org/2000/svg"
 width="2048.000000pt" height="2048.000000pt" viewBox="0 0 2048.000000 2048.000000"
 preserveAspectRatio="xMidYMid meet">

<g transform="translate(0.000000,2048.000000) scale(0.100000,-0.100000)"
fill="#000000" stroke="none">
<path d="M9869 20470 c-1909 -72 -3732 -660 -5309 -1715 -1370 -916 -2492
-2138 -3296 -3590 -120 -217 -330 -648 -431 -885 -427 -996 -689 -2034 -787
-3110 -53 -578 -53 -1256 -1 -1850 136 -1529 618 -3011 1412 -4338 791 -1323
1891 -2466 3188 -3314 1065 -697 2300 -1207 3515 -1452 162 -33 454 -86 472
-86 5 0 8 1609 8 3575 l0 3575 -1300 0 -1300 0 0 1480 0 1480 1300 0 1300 0 0
1273 c0 780 4 1325 10 1408 97 1257 559 2203 1380 2823 177 134 287 201 505
311 252 127 465 208 740 280 403 105 751 145 1270 145 639 0 1324 -55 2104
-171 l151 -22 0 -1263 0 -1262 -757 -5 c-641 -3 -776 -7 -873 -21 -299 -44
-523 -124 -730 -261 -85 -57 -237 -203 -297 -285 -143 -197 -233 -430 -280
-721 -14 -91 -17 -239 -20 -1166 l-4 -1063 1420 0 c1130 0 1421 -3 1421 -12 0
-14 -437 -2877 -446 -2921 l-6 -27 -1194 0 -1194 0 0 -3575 c0 -2427 3 -3575
10 -3575 6 0 87 14 180 30 1380 244 2682 764 3850 1537 1902 1259 3324 3102
4056 5258 481 1414 644 2949 474 4450 -183 1616 -750 3162 -1655 4515 -1258
1881 -3099 3295 -5230 4016 -769 261 -1542 424 -2355 498 -384 35 -920 50
-1301 36z"/>
</g>
</svg>
