<?xml version="1.0" standalone="no"?>
<!DOCTYPE svg PUBLIC "-//W3C//DTD SVG 20010904//EN"
 "http://www.w3.org/TR/2001/REC-SVG-20010904/DTD/svg10.dtd">
<svg version="1.0" xmlns="http://www.w3.org/2000/svg"
 width="225.000000pt" height="225.000000pt" viewBox="0 0 225.000000 225.000000"
 preserveAspectRatio="xMidYMid meet">

<g transform="translate(0.000000,225.000000) scale(0.100000,-0.100000)"
fill="#000000" stroke="none">
<path d="M980 2204 c-235 -30 -429 -100 -598 -217 -86 -59 -224 -202 -271
-280 -166 -279 -141 -597 68 -859 53 -67 120 -126 260 -230 24 -18 53 -45 63
-59 28 -37 41 -150 28 -250 -10 -82 -43 -217 -62 -253 -24 -45 289 150 454
283 49 39 98 75 109 82 12 6 85 15 163 20 78 4 173 15 211 23 414 88 712 332
816 666 19 61 23 97 23 190 -1 230 -79 399 -266 576 -144 135 -350 239 -563
284 -98 20 -352 34 -435 24z"/>
</g>
</svg>
