<?xml version="1.0" standalone="no"?>
<!DOCTYPE svg PUBLIC "-//W3C//DTD SVG 20010904//EN"
 "http://www.w3.org/TR/2001/REC-SVG-20010904/DTD/svg10.dtd">
<svg version="1.0" xmlns="http://www.w3.org/2000/svg"
 width="512.000000pt" height="512.000000pt" viewBox="0 0 512.000000 512.000000"
 preserveAspectRatio="xMidYMid meet">

<g transform="translate(0.000000,512.000000) scale(0.100000,-0.100000)"
fill="#000000" stroke="none">
<path d="M2380 4785 c-408 -65 -755 -364 -885 -762 -212 -649 218 -1346 895
-1448 236 -36 449 -3 665 105 339 168 561 476 615 855 53 377 -110 781 -412
1020 -247 195 -567 279 -878 230z m370 -328 c209 -57 368 -171 480 -344 89
-136 125 -259 125 -433 0 -174 -36 -297 -125 -433 -238 -366 -718 -474 -1087
-247 -226 139 -363 368 -380 636 -26 400 254 753 662 833 67 13 257 6 325 -12z"/>
<path d="M1575 2229 c-314 -41 -601 -184 -830 -414 -169 -168 -282 -351 -355
-573 -57 -176 -64 -240 -65 -544 0 -264 1 -278 21 -304 11 -15 33 -37 48 -48
l27 -21 2139 0 2139 0 27 21 c15 11 37 33 48 48 20 26 21 40 20 309 0 249 -3
293 -22 379 -65 296 -189 526 -397 733 -204 205 -434 330 -727 398 -91 20
-114 21 -1048 23 -534 1 -986 -2 -1025 -7z m1958 -324 c250 -38 504 -177 666
-365 193 -224 281 -469 281 -782 l0 -118 -1920 0 -1920 0 0 123 c0 376 145
690 422 911 144 116 339 202 518 231 131 20 1816 21 1953 0z"/>
</g>
</svg>
